<svg xmlns="http://www.w3.org/2000/svg" viewBox="0 0 1800 1100" preserveAspectRatio="xMidYMid slice">
  <defs>
    <linearGradient id="sky" x1="0" y1="0" x2="0" y2="1">
      <stop offset="0" stop-color="#071b2c"/>
      <stop offset="0.42" stop-color="#0a3550"/>
      <stop offset="1" stop-color="#dfeee9"/>
    </linearGradient>
    <linearGradient id="gold" x1="0" y1="0" x2="1" y2="1">
      <stop offset="0" stop-color="#f4cc7c"/>
      <stop offset="1" stop-color="#b88735"/>
    </linearGradient>
    <linearGradient id="mountainA" x1="0" y1="0" x2="0" y2="1">
      <stop offset="0" stop-color="#174d66"/>
      <stop offset="1" stop-color="#0f2a3b"/>
    </linearGradient>
    <linearGradient id="mountainB" x1="0" y1="0" x2="0" y2="1">
      <stop offset="0" stop-color="#64a69e"/>
      <stop offset="1" stop-color="#1f5e65"/>
    </linearGradient>
    <linearGradient id="panel" x1="0" y1="0" x2="1" y2="1">
      <stop offset="0" stop-color="#0d7194"/>
      <stop offset="1" stop-color="#0f3a5d"/>
    </linearGradient>
    <filter id="softGlow" x="-20%" y="-20%" width="140%" height="140%">
      <feGaussianBlur stdDeviation="18" result="blur"/>
      <feMerge>
        <feMergeNode in="blur"/>
        <feMergeNode in="SourceGraphic"/>
      </feMerge>
    </filter>
  </defs>

  <rect width="1800" height="1100" fill="url(#sky)"/>
  <circle cx="1398" cy="170" r="62" fill="#f4dca3" opacity="0.94" filter="url(#softGlow)"/>
  <circle cx="1288" cy="226" r="26" fill="#f4dca3" opacity="0.55"/>

  <path d="M0 475 C170 350 288 392 404 290 C538 172 635 362 770 242 C916 113 1036 336 1180 245 C1326 154 1428 260 1548 210 C1675 158 1736 210 1800 162 L1800 1100 L0 1100 Z" fill="url(#mountainA)" opacity="0.78"/>
  <path d="M0 618 C135 520 230 565 346 455 C520 288 665 570 812 420 C964 266 1110 548 1264 398 C1430 236 1596 452 1800 332 L1800 1100 L0 1100 Z" fill="url(#mountainB)" opacity="0.72"/>
  <path d="M0 727 C170 650 350 698 528 610 C692 530 836 662 1014 575 C1196 486 1402 648 1800 512 L1800 1100 L0 1100 Z" fill="#c6ddd5" opacity="0.58"/>
  <path d="M0 835 C240 748 390 802 570 720 C750 640 936 770 1118 694 C1336 603 1514 710 1800 626 L1800 1100 L0 1100 Z" fill="#eef6f2" opacity="0.82"/>

  <g opacity="0.62" fill="none" stroke="url(#gold)" stroke-width="2.5">
    <path d="M0 660 C172 560 268 628 430 520 C566 430 672 545 812 468 C948 392 1056 508 1184 440 C1378 335 1542 430 1800 330"/>
    <path d="M0 743 C202 638 338 740 508 635 C668 537 796 690 972 596 C1162 493 1324 630 1510 535 C1620 478 1705 480 1800 430"/>
    <path d="M88 825 C260 742 380 808 556 736 C710 674 860 770 1020 710 C1194 646 1340 732 1516 668"/>
  </g>

  <g opacity="0.22" fill="#ffffff">
    <ellipse cx="365" cy="548" rx="330" ry="54"/>
    <ellipse cx="1020" cy="438" rx="295" ry="46"/>
    <ellipse cx="1428" cy="604" rx="310" ry="50"/>
    <ellipse cx="786" cy="720" rx="430" ry="60"/>
  </g>

  <g transform="translate(1180 320)" opacity="0.92">
    <rect x="126" y="170" width="138" height="442" rx="6" fill="#dfe9e7"/>
    <rect x="144" y="190" width="16" height="390" fill="#b9c9ca" opacity="0.8"/>
    <rect x="178" y="190" width="16" height="390" fill="#b9c9ca" opacity="0.8"/>
    <rect x="212" y="190" width="16" height="390" fill="#b9c9ca" opacity="0.8"/>
    <line x1="195" y1="128" x2="195" y2="170" stroke="#dfe9e7" stroke-width="10"/>
    <g stroke="#dfe9e7" stroke-width="10" stroke-linecap="round">
      <line x1="195" y1="128" x2="20" y2="78"/>
      <line x1="195" y1="128" x2="370" y2="78"/>
      <line x1="195" y1="128" x2="60" y2="210"/>
      <line x1="195" y1="128" x2="330" y2="210"/>
    </g>
    <g stroke="#f4bd54" stroke-width="5">
      <line x1="70" y1="96" x2="70" y2="256"/>
      <line x1="315" y1="96" x2="315" y2="246"/>
      <line x1="95" y1="205" x2="95" y2="345"/>
      <line x1="288" y1="205" x2="288" y2="335"/>
    </g>
    <g fill="#79878a">
      <rect x="43" y="256" width="56" height="76" rx="4"/>
      <rect x="288" y="246" width="56" height="76" rx="4"/>
      <rect x="68" y="345" width="56" height="76" rx="4"/>
      <rect x="261" y="335" width="56" height="76" rx="4"/>
    </g>
  </g>

  <g transform="translate(210 715)" opacity="0.86">
    <path d="M0 110 L220 64 L430 110 Z" fill="#cfd8df"/>
    <g fill="url(#panel)" stroke="#dbe9ec" stroke-width="3">
      <polygon points="22,106 112,88 160,108 68,126"/>
      <polygon points="132,86 222,68 270,88 178,106"/>
      <polygon points="242,66 332,48 380,68 288,86"/>
      <polygon points="96,132 188,114 236,134 142,154"/>
      <polygon points="206,112 298,94 346,114 252,134"/>
      <polygon points="316,90 408,72 456,92 362,112"/>
    </g>
  </g>

  <g stroke="#e7f3f4" stroke-width="8" opacity="0.78">
    <g transform="translate(900 670)">
      <line x1="0" y1="0" x2="0" y2="130"/>
      <circle cx="0" cy="0" r="8" fill="#e7f3f4"/>
      <line x1="0" y1="0" x2="-68" y2="-22"/>
      <line x1="0" y1="0" x2="58" y2="-42"/>
      <line x1="0" y1="0" x2="22" y2="68"/>
    </g>
    <g transform="translate(1018 704) scale(.72)">
      <line x1="0" y1="0" x2="0" y2="130"/>
      <circle cx="0" cy="0" r="8" fill="#e7f3f4"/>
      <line x1="0" y1="0" x2="-68" y2="-22"/>
      <line x1="0" y1="0" x2="58" y2="-42"/>
      <line x1="0" y1="0" x2="22" y2="68"/>
    </g>
  </g>

  <g opacity="0.34">
    <path d="M0 0 L1800 0 L1800 1100 L0 1100 Z" fill="#04111d"/>
    <path d="M0 0 H1800 V1100 H0 Z" fill="none" stroke="#f2d17a" stroke-width="18" opacity="0.08"/>
  </g>
</svg>
